<svg width="70" height="70" viewBox="0 0 70 70" fill="none" xmlns="http://www.w3.org/2000/svg">
<g clip-path="url(#clip0_342_1808)">
<path d="M66.0813 50.9922H3.85913V54.1811H66.0813V50.9922Z" fill="#E2E5FF"/>
<path d="M34.9701 62.3593C31.7333 62.3593 28.8675 60.5105 27.7248 57.7764H1.04701C0.466667 57.7764 0 57.3097 0 56.7294V7.83705C0 7.25671 0.466667 6.79004 1.04701 6.79004H4.43334C5.01368 6.79004 5.48034 7.25671 5.48034 7.83705C5.48034 8.41739 5.01368 8.88406 4.43334 8.88406H2.09402V55.6823H28.4607C28.9274 55.6823 29.3402 55.9935 29.4658 56.4422C30.106 58.6917 32.3615 60.2653 34.9581 60.2653C37.5547 60.2653 39.8162 58.6917 40.4504 56.4422C40.5761 55.9935 40.9889 55.6823 41.4556 55.6823H67.8222V8.88406H65.1239C64.5436 8.88406 64.0769 8.41739 64.0769 7.83705C64.0769 7.25671 64.5436 6.79004 65.1239 6.79004H68.8692C69.4496 6.79004 69.9162 7.25671 69.9162 7.83705V56.7294C69.9162 57.3097 69.4496 57.7764 68.8692 57.7764H42.1914C41.0726 60.5105 38.2068 62.3593 34.9701 62.3593Z" fill="#272EB9"/>
<path d="M34.9702 52.0633H4.72059C4.14025 52.0633 3.67358 51.5967 3.67358 51.0163V4.63685C3.67358 4.05651 4.14025 3.58984 4.72059 3.58984H27.0189C31.9847 3.58984 36.0232 7.6283 36.0232 12.5941V51.0163C36.0172 51.5907 35.5445 52.0633 34.9702 52.0633ZM5.76163 49.9693H33.9172V12.5941C33.9172 8.783 30.818 5.68386 27.0069 5.68386H5.75564V49.9693H5.76163Z" fill="#272EB9"/>
<path d="M65.2197 52.0633H34.9701C34.3898 52.0633 33.9231 51.5967 33.9231 51.0163V12.5941C33.9231 7.6283 37.9616 3.58984 42.9274 3.58984H65.2257C65.806 3.58984 66.2727 4.05651 66.2727 4.63685V51.0163C66.2667 51.5907 65.8 52.0633 65.2197 52.0633ZM36.0171 49.9693H64.1727V5.68386H42.9214C39.1103 5.68386 36.0111 8.783 36.0111 12.5941V49.9693H36.0171Z" fill="#272EB9"/>
<path d="M49.0898 51.125V65.5917L53.7326 63.2344L58.3693 65.5917V51.125H49.0898Z" fill="#FFD0EA"/>
<path d="M58.3693 66.6387C58.2078 66.6387 58.0463 66.6028 57.8967 66.525L53.7326 64.4071L49.5685 66.525C49.2454 66.6866 48.8565 66.6746 48.5454 66.4831C48.2343 66.2917 48.0488 65.9566 48.0488 65.5917V51.131C48.0488 50.5507 48.5155 50.084 49.0958 50.084H58.3753C58.9557 50.084 59.4223 50.5507 59.4223 51.131V65.5917C59.4223 65.9566 59.2309 66.2917 58.9198 66.4831C58.7522 66.5848 58.5608 66.6387 58.3693 66.6387ZM53.7326 62.1874C53.8941 62.1874 54.0557 62.2233 54.2052 62.3011L57.3223 63.8866V52.178H50.1369V63.8866L53.254 62.3011C53.4035 62.2233 53.5711 62.1874 53.7326 62.1874Z" fill="#C0066B"/>
<path d="M28.7958 14.9934H11.2958C10.7154 14.9934 10.2488 14.5268 10.2488 13.9464C10.2488 13.3661 10.7154 12.8994 11.2958 12.8994H28.7958C29.3761 12.8994 29.8428 13.3661 29.8428 13.9464C29.8428 14.5208 29.3761 14.9934 28.7958 14.9934Z" fill="#272EB9"/>
<path d="M28.7958 20.8567H11.2958C10.7154 20.8567 10.2488 20.39 10.2488 19.8097C10.2488 19.2294 10.7154 18.7627 11.2958 18.7627H28.7958C29.3761 18.7627 29.8428 19.2294 29.8428 19.8097C29.8428 20.3841 29.3761 20.8567 28.7958 20.8567Z" fill="#272EB9"/>
<path d="M28.7958 26.719H11.2958C10.7154 26.719 10.2488 26.2524 10.2488 25.672C10.2488 25.0917 10.7154 24.625 11.2958 24.625H28.7958C29.3761 24.625 29.8428 25.0917 29.8428 25.672C29.8428 26.2524 29.3761 26.719 28.7958 26.719Z" fill="#272EB9"/>
<path d="M28.7958 32.5833H11.2958C10.7154 32.5833 10.2488 32.1166 10.2488 31.5363C10.2488 30.9559 10.7154 30.4893 11.2958 30.4893H28.7958C29.3761 30.4893 29.8428 30.9559 29.8428 31.5363C29.8428 32.1166 29.3761 32.5833 28.7958 32.5833Z" fill="#272EB9"/>
<path d="M28.7958 38.4466H11.2958C10.7154 38.4466 10.2488 37.9799 10.2488 37.3995C10.2488 36.8192 10.7154 36.3525 11.2958 36.3525H28.7958C29.3761 36.3525 29.8428 36.8192 29.8428 37.3995C29.8428 37.9739 29.3761 38.4466 28.7958 38.4466Z" fill="#272EB9"/>
<path d="M28.7958 44.3089H11.2958C10.7154 44.3089 10.2488 43.8422 10.2488 43.2619C10.2488 42.6815 10.7154 42.2148 11.2958 42.2148H28.7958C29.3761 42.2148 29.8428 42.6815 29.8428 43.2619C29.8428 43.8362 29.3761 44.3089 28.7958 44.3089Z" fill="#272EB9"/>
<path d="M55.4197 14.9925H44.9017C44.3214 14.9925 43.8547 14.5258 43.8547 13.9454C43.8547 13.3651 44.3214 12.8984 44.9017 12.8984H55.4197C56 12.8984 56.4667 13.3651 56.4667 13.9454C56.4667 14.5198 56 14.9925 55.4197 14.9925Z" fill="#272EB9"/>
<path d="M58.9077 38.4456H41.4077C40.8274 38.4456 40.3607 37.9789 40.3607 37.3986C40.3607 36.8182 40.8274 36.3516 41.4077 36.3516H58.9077C59.4881 36.3516 59.9547 36.8182 59.9547 37.3986C59.9547 37.9729 59.4881 38.4456 58.9077 38.4456Z" fill="#272EB9"/>
<path d="M58.9077 44.3079H41.4077C40.8274 44.3079 40.3607 43.8412 40.3607 43.2609C40.3607 42.6805 40.8274 42.2139 41.4077 42.2139H58.9077C59.4881 42.2139 59.9547 42.6805 59.9547 43.2609C59.9547 43.8352 59.4881 44.3079 58.9077 44.3079Z" fill="#272EB9"/>
<path d="M58.1598 17.4336H42.1555V33.4379H58.1598V17.4336Z" fill="#E2E5FF"/>
</g>
<defs>
<clipPath id="clip0_342_1808">
<rect width="70" height="70" fill="white"/>
</clipPath>
</defs>
</svg>
